Coordinates
version=1
nRows=19
nColumns=24
inDegrees=yes

Units are S.I. units (second, meters, Newtons, ...)
Angles are in degrees.

endheader
time	pelvis_tilt	pelvis_list	pelvis_rotation	pelvis_tx	pelvis_ty	pelvis_tz	hip_flexion_r	hip_adduction_r	hip_rotation_r	knee_angle_r	ankle_angle_r	subtalar_angle_r	mtp_angle_r	hip_flexion_l	hip_adduction_l	hip_rotation_l	knee_angle_l	ankle_angle_l	subtalar_angle_l	mtp_angle_l	lumbar_extension	lumbar_bending	lumbar_rotation
      4.69500000	     -4.72965008	     12.12328082	     -5.98748492	     -2.22651400	     -0.02003797	     -0.32057983	     13.38924234	    -17.84924086	     -3.32299977	    -62.84406388	    -27.51774626	    -10.32628710	     21.43874061	     16.49001956	     15.12960749	     -6.71182870	    -15.43752459	      2.60834522	     -9.46316116	      8.36568817	      3.52565450	    -12.25635927	      5.49089003
      4.70000000	     -4.68539059	     11.90971685	     -6.00474102	     -2.22001981	     -0.01892328	     -0.32095336	     14.26827724	    -17.52345068	     -3.11275644	    -63.40976277	    -26.04362709	    -10.30408464	     21.99807264	     15.72477624	     15.04660228	     -6.50490611	    -14.99201915	      2.83315195	     -9.51342438	      8.31811666	      3.42966273	    -11.98237679	      5.23432982
      4.70500000	     -4.64651117	     11.67678276	     -6.04560728	     -2.21353634	     -0.01783315	     -0.32129458	     15.15118038	    -17.15048717	     -2.88161747	    -63.90112384	    -24.68156055	    -10.31789858	     22.54424563	     14.97511589	     14.93653677	     -6.27130088	    -14.56597896	      3.04976815	     -9.60496732	      8.22972188	      3.34649086	    -11.68559776	      5.02495165
      4.71000000	     -4.62049822	     11.43881261	     -6.08671263	     -2.20703353	     -0.01677230	     -0.32160373	     16.03420246	    -16.74917852	     -2.64612751	    -64.31962705	    -23.42275417	    -10.35236659	     23.03774962	     14.23976717	     14.81729668	     -5.98339830	    -14.15017489	      3.25988699	     -9.71395841	      8.04340471	      3.28440883	    -11.38512107	      4.83033787
      4.71500000	     -4.59141186	     11.13313364	     -6.14656161	     -2.20061709	     -0.01571526	     -0.32186063	     16.90195224	    -16.24417834	     -2.43734160	    -64.65536746	    -22.37070721	    -10.60693579	     23.31800022	     13.52113006	     14.61264874	     -5.70388732	    -13.78207949	      3.50148332	     -9.80605452	      7.96229436	      3.20262302	    -11.01309139	      4.65875789
      4.72000000	     -4.56179506	     10.93505741	     -6.17005300	     -2.19410658	     -0.01476827	     -0.32223643	     17.76010690	    -15.88329379	     -2.21813655	    -64.96574767	    -21.10632393	    -10.48046223	     23.60167039	     12.79605836	     14.54500642	     -5.39709067	    -13.38506578	      3.70632074	     -9.98256465	      7.48181246	      3.14476843	    -10.75089862	      4.44306340
      4.72500000	     -4.53600934	     10.67298577	     -6.20282976	     -2.18758127	     -0.01376825	     -0.32256756	     18.59472413	    -15.43165894	     -2.07141934	    -65.18525257	    -19.99483185	    -10.62717385	     23.20453571	     12.06189781	     14.41057627	     -4.94896593	    -13.03423963	      4.19895407	    -10.05721642	      5.71985217	      3.09375863	    -10.42299924	      4.28192098
      4.73000000	     -4.52330213	     10.37923236	     -6.25204500	     -2.18124959	     -0.01282069	     -0.32280731	     19.43573322	    -14.90014352	     -1.87489296	    -65.30880991	    -19.09607141	    -10.88169390	     23.36051467	     11.37461685	     14.19737794	     -4.75973956	    -12.67054248	      4.41739059	    -10.06590847	      5.67772248	      3.01976571	    -10.06718413	      4.08399861
      4.73500000	     -4.50360373	     10.10198444	     -6.30301123	     -2.17486407	     -0.01187846	     -0.32304588	     20.24368475	    -14.39034631	     -1.69804673	    -65.35036084	    -18.17008583	    -11.05987361	     23.46777398	     10.65242977	     13.99961265	     -4.55821777	    -12.25562847	      4.61193905	    -10.05337752	      5.59502807	      2.95906976	     -9.73247858	      3.92397121
      4.74000000	     -4.31491754	      9.85435228	     -6.37125337	     -2.16846967	     -0.01079599	     -0.32326274	     20.85489238	    -13.94296079	     -1.58065825	    -65.37391687	    -16.83680604	    -10.98055330	     22.16056973	      9.71944777	     13.86100584	     -4.34589377	    -11.80567689	      4.99398280	     -9.95929731	      4.39680878	      2.72128357	     -9.44985732	      3.75376570
      4.74500000	     -4.29434230	      9.60431946	     -6.42892963	     -2.16218170	     -0.00991185	     -0.32344781	     21.64069722	    -13.44591570	     -1.41511944	    -65.29341152	    -15.78058894	    -11.02826113	     21.78957602	      8.99324043	     13.66914849	     -4.29081175	    -11.36285855	      5.26528155	     -9.72756609	      4.14732651	      2.65072616	     -9.15242600	      3.61613972
      4.75000000	     -4.32222578	      9.33784386	     -6.43998603	     -2.15593647	     -0.00906289	     -0.32372083	     22.43298389	    -12.94003842	     -1.30610286	    -65.08960530	    -14.92522553	    -11.20892261	     21.90002150	      8.29544179	     13.46293886	     -4.13578254	    -10.87002236	      5.40124135	     -9.60150264	      4.14959542	      2.61782760	     -8.83017900	      3.44258597
      4.75500000	     -4.16550919	      9.06971350	     -6.47759760	     -2.14971076	     -0.00805888	     -0.32390983	     22.98082677	    -12.46005308	     -1.21728832	    -64.79558392	    -13.84257054	    -11.14473026	     21.74765164	      7.38039974	     13.25789211	     -4.16018869	    -10.33518586	      5.60385600	     -9.23040245	      4.22107890	      2.38502285	     -8.54098052	      3.27627176
      4.76000000	     -4.05926601	      8.77242034	     -6.52968624	     -2.14354028	     -0.00712796	     -0.32406814	     23.57033248	    -11.92812617	     -1.14758109	    -64.42933008	    -12.83147418	    -11.18555819	     21.30196219	      6.51506121	     13.00636003	     -4.22339021	     -9.78229216	      5.80393825	     -8.83267722	      4.42019630	      2.19945293	     -8.21129820	      3.12875417
      4.76500000	     -3.99721622	      8.46529202	     -6.59984182	     -2.13745658	     -0.00625218	     -0.32407936	     24.20032896	    -11.35090600	     -1.10571833	    -64.02118529	    -11.68063547	    -11.26574363	     19.81695902	      5.70509176	     12.71973258	     -4.38062212	     -9.20799718	      5.84235046	     -8.44948186	      5.13310827	      2.05127556	     -7.88324715	      3.02490613
      4.77000000	     -4.09679722	      8.21249892	     -6.58165299	     -2.13142894	     -0.00562329	     -0.32435085	     24.97789210	    -10.86538760	     -1.06232283	    -63.49861248	    -10.85072364	    -11.32179441	     19.90802995	      5.07871451	     12.50396437	     -4.27977827	     -8.65780709	      5.91147808	     -8.24292712	      5.18135315	      2.06121351	     -7.57740849	      2.82936103
      4.77500000	     -3.91059842	      7.87325687	     -6.63776919	     -2.12541910	     -0.00473361	     -0.32434470	     25.38158055	    -10.29019278	     -1.07125044	    -62.88353011	     -9.78260975	    -11.32038340	     18.83633807	      4.13349211	     12.18936914	     -4.50681377	     -8.08783945	      6.03647066	     -7.65414514	      6.02446310	      1.76622154	     -7.24241256	      2.70357568
      4.78000000	     -3.91470165	      7.59264317	     -6.60151056	     -2.11947116	     -0.00412792	     -0.32451468	     25.98346103	     -9.79797079	     -1.11259844	    -62.23374628	     -8.69907899	    -11.18437260	     17.79087706	      3.40537878	     11.93728981	     -4.52069240	     -7.51557745	      6.00707286	     -7.34475748	      6.86038486	      1.65034062	     -6.93944582	      2.47125125
      4.78500000	     -3.98650357	      7.31917623	     -6.50438630	     -2.11350903	     -0.00362794	     -0.32482222	     26.60724752	     -9.35760646	     -1.23583511	    -61.45189003	     -7.89394901	    -11.19051800	     17.57076099	      2.77480062	     11.69906593	     -4.48506069	     -7.00967087	      6.08104725	     -7.03387623	      7.08541945	      1.60961894	     -6.62996708	      2.23904943
